<?xml version="1.0" encoding="UTF-8"?>
<svg xmlns="http://www.w3.org/2000/svg" version="1.1" width="292px" height="292px" style="shape-rendering:geometricPrecision; text-rendering:geometricPrecision; image-rendering:optimizeQuality; fill-rule:evenodd; clip-rule:evenodd" xmlns:xlink="http://www.w3.org/1999/xlink">
<g><path style="opacity:0.999" fill="#020202" d="M 141.5,63.5 C 132.192,58.6808 122.525,54.6808 112.5,51.5C 112.5,34.5 112.5,17.5 112.5,0.5C 122.167,0.5 131.833,0.5 141.5,0.5C 141.5,21.5 141.5,42.5 141.5,63.5 Z"/></g>
<g><path style="opacity:0.115" fill="#888888" d="M 111.5,-0.5 C 121.833,-0.5 132.167,-0.5 142.5,-0.5C 142.833,21.5757 142.499,42.9091 141.5,63.5C 141.5,42.5 141.5,21.5 141.5,0.5C 131.833,0.5 122.167,0.5 112.5,0.5C 112.5,17.5 112.5,34.5 112.5,51.5C 111.503,34.3414 111.17,17.008 111.5,-0.5 Z"/></g>
<g><path style="opacity:0.998" fill="#080808" d="M 68.5,232.5 C 66.4855,231.076 64.1522,230.41 61.5,230.5C 49.9429,227.393 39.9429,221.727 31.5,213.5C 31.44,212.957 31.1067,212.624 30.5,212.5C 29.5002,238.491 29.1669,264.491 29.5,290.5C 19.8333,290.5 10.1667,290.5 0.5,290.5C 0.5,239.5 0.5,188.5 0.5,137.5C 5.48552,98.0137 26.8189,71.847 64.5,59C 103.2,49.9006 135.367,60.4006 161,90.5C 180.596,118.008 184.596,147.674 173,179.5C 171.985,182.21 170.485,184.543 168.5,186.5C 159.314,178.804 153.148,169.137 150,157.5C 151.517,132.048 142.35,111.548 122.5,96C 98.5004,82.519 75.1671,83.519 52.5,99C 31.305,118.259 25.4717,141.426 35,168.5C 51.3839,199.436 76.5506,210.27 110.5,201C 113.412,199.627 116.246,198.127 119,196.5C 124.563,205.234 131.397,212.9 139.5,219.5C 124.674,230.218 108.008,235.552 89.5,235.5C 82.2195,235.508 75.2195,234.508 68.5,232.5 Z"/></g>
<g><path style="opacity:0.997" fill="#0a0a0a" d="M 291.5,137.5 C 291.5,142.833 291.5,148.167 291.5,153.5C 285.132,194.372 262.132,220.872 222.5,233C 185.189,240.231 154.355,229.398 130,200.5C 119.744,187.234 113.911,172.234 112.5,155.5C 111.846,136.47 112.513,117.803 114.5,99.5C 127.925,107.11 136.759,118.444 141,133.5C 139.479,158.946 148.646,179.446 168.5,195C 192.5,208.481 215.833,207.481 238.5,192C 263.2,168.163 267.033,141.329 250,111.5C 232.779,89.6501 210.612,82.1501 183.5,89C 179.469,90.4323 175.636,92.2657 172,94.5C 166.437,85.7662 159.603,78.0995 151.5,71.5C 166.326,60.7817 182.992,55.4483 201.5,55.5C 243.385,57.9061 271.885,78.5727 287,117.5C 288.853,124.233 290.353,130.899 291.5,137.5 Z"/></g>
<g><path style="opacity:0.365" fill="#666666" d="M 114.5,99.5 C 112.513,117.803 111.846,136.47 112.5,155.5C 111.503,136.674 111.17,117.674 111.5,98.5C 112.791,98.2627 113.791,98.596 114.5,99.5 Z"/></g>
<g><path style="opacity:0.367" fill="#808080" d="M -0.5,137.5 C -0.166667,137.5 0.166667,137.5 0.5,137.5C 0.5,188.5 0.5,239.5 0.5,290.5C 10.1667,290.5 19.8333,290.5 29.5,290.5C 29.1669,264.491 29.5002,238.491 30.5,212.5C 31.1067,212.624 31.44,212.957 31.5,213.5C 30.5022,239.328 30.1689,265.328 30.5,291.5C 20.1667,291.5 9.83333,291.5 -0.5,291.5C -0.5,240.167 -0.5,188.833 -0.5,137.5 Z"/></g>
<g><path style="opacity:0.843" fill="#505050" d="M 61.5,230.5 C 64.1522,230.41 66.4855,231.076 68.5,232.5C 65.8478,232.59 63.5145,231.924 61.5,230.5 Z"/></g>
</svg>
